# xmcd
#
# Track frame offsets: 
#        150
#        26615
#        52244
#        73463
#        93496
#        117676
#        139116
#        166201
#        193617
#        213793
#
# Disc length: 3128 seconds
#
# Revision: 0
# Processed by: cddbd v1.5.2PL0 Copyright (c) Steve Scherf et al.
# Submitted via: ExactAudioCopy v1.0b3
#
DISCID=9a0c360a
DTITLE=Che Linh - Linh Nghi Gi CD3
DYEAR=2002
DGENRE=
TTITLE0=Nguoi nhap cuoc
TTITLE1=Che Linh, Thien Trang - Neu chung minh cach tro
TTITLE2=Trom nhin nhau
TTITLE3=Hai chuyen tau dem
TTITLE4=Che Linh, Huong Lan - Noi lai tinh xua
TTITLE5=Vong nhan cuoi
TTITLE6=Chuyen tau hoang hon
TTITLE7=Dem hoang
TTITLE8=Doi mat nguoi xua (Tinh nao trong mat em)
TTITLE9=Che Linh, Giao Linh - Loi ve dat Me
EXTD=
EXTT0=
EXTT1=
EXTT2=
EXTT3=
EXTT4=
EXTT5=
EXTT6=
EXTT7=
EXTT8=
EXTT9=
PLAYORDER=
